<svg xmlns="http://www.w3.org/2000/svg" xml:space="preserve" width="16" height="16" data-version="2">
    <path fill="#646ee4" d="M2.21 11V4.38h1.47V11Zm3.98 0L4.27 8.17h1.62L7.9 11Zm-2.9-2.11V7.73h1.62q.32 0 .56-.13.24-.13.37-.37t.13-.55q0-.32-.13-.55-.13-.24-.37-.37t-.56-.13H3.29V4.38h1.5q.82 0 1.42.24.6.25.93.74.32.48.32 1.22v.14q0 .73-.33 1.22-.32.48-.92.72-.6.23-1.42.23Z" paint-order="stroke"/>
    <rect width="5.69" height="6.62" x="-2.845" y="-3.31" fill="none" rx="0" ry="0" transform="translate(5.555 8.19)"/>
    <path fill="#646ee4" d="M10.9 11.17q-.88 0-1.54-.29t-1.08-.79q-.43-.49-.64-1.1-.2-.6-.2-1.2v-.2q0-.62.2-1.22.21-.59.63-1.08.42-.48 1.04-.77.63-.29 1.45-.29.89 0 1.57.33.69.33 1.1.91.41.58.48 1.34h-1.48q-.05-.36-.28-.63-.23-.27-.59-.42-.35-.15-.8-.15-.44 0-.77.15-.34.15-.58.43-.24.28-.36.67-.12.38-.12.84 0 .47.13.87.13.39.38.67t.63.44q.37.15.83.15.61 0 1.06-.25.45-.25.65-.67l-.18 1.01V8.35h1.36v1.41q-.42.68-1.17 1.05-.74.36-1.72.36m-.19-2.53V7.58h3.62v1.06Z" paint-order="stroke"/>
    <rect width="6.89" height="6.94" x="-3.445" y="-3.47" fill="none" rx="0" ry="0" transform="translate(11.385 8.2)"/>
</svg>
