<?xml version="1.0" encoding="UTF-8" standalone="no" ?>
<!DOCTYPE svg PUBLIC "-//W3C//DTD SVG 1.1//EN" "http://www.w3.org/Graphics/SVG/1.1/DTD/svg11.dtd">
<svg xmlns="http://www.w3.org/2000/svg" xmlns:xlink="http://www.w3.org/1999/xlink" version="1.1" width="1080" height="1080" viewBox="0 0 1080 1080" xml:space="preserve">
<desc>Created with Fabric.js 5.2.4</desc>
<defs>
</defs>
<g transform="matrix(1 0 0 1 540 540)" id="07e09ac6-4776-4ab6-b014-c463af0256f6"  >
<rect style="stroke: none; stroke-width: 1; stroke-dasharray: none; stroke-linecap: butt; stroke-dashoffset: 0; stroke-linejoin: miter; stroke-miterlimit: 4; fill: rgb(255,255,255); fill-rule: nonzero; opacity: 1; visibility: hidden;" vector-effect="non-scaling-stroke"  x="-540" y="-540" rx="0" ry="0" width="1080" height="1080" />
</g>
<g transform="matrix(1 0 0 1 540 540)" id="f965b567-9cf6-4abe-91a7-ee03aa878ddf"  >
</g>
<g transform="matrix(1.38 0 0 1.9 540 555.82)"  >
<g style="" vector-effect="non-scaling-stroke"   >
		<g transform="matrix(1 0 0 1 -334.34 -48.52)"  >
<rect style="stroke: none; stroke-width: 1; stroke-dasharray: none; stroke-linecap: butt; stroke-dashoffset: 0; stroke-linejoin: miter; stroke-miterlimit: 4; fill: rgb(255,255,255); fill-opacity: 0; fill-rule: nonzero; opacity: 1;" vector-effect="non-scaling-stroke"  x="-50" y="-50" rx="0" ry="0" width="100" height="100" />
</g>
		<g transform="matrix(1 0 0 1 -349.55 -2.87)"  >
<path style="stroke: none; stroke-width: 1; stroke-dasharray: none; stroke-linecap: butt; stroke-dashoffset: 0; stroke-linejoin: miter; stroke-miterlimit: 4; fill: rgb(100,110,228); fill-rule: nonzero; opacity: 1;" vector-effect="non-scaling-stroke"  paint-order="stroke"  transform=" translate(-34.79, -95.65)" d="M 7.252 127.665 L 7.252 63.625 L 21.522 63.625 L 21.522 127.665 Z M 45.792 127.665 L 27.172 100.345 L 42.832 100.345 L 62.322 127.66499999999999 Z M 17.692 107.305 L 17.692 96.075 L 33.352000000000004 96.075 Q 36.482000000000006 96.075 38.792 94.815 Q 41.092 93.55499999999999 42.352000000000004 91.255 Q 43.612 88.945 43.612 85.905 Q 43.612 82.855 42.352000000000004 80.555 Q 41.092000000000006 78.245 38.792 76.98500000000001 Q 36.482 75.72500000000001 33.352000000000004 75.72500000000001 L 17.692000000000004 75.72500000000001 L 17.692000000000004 63.62500000000001 L 32.222 63.62500000000001 Q 40.132000000000005 63.62500000000001 45.962 66.025 Q 51.792 68.415 54.922000000000004 73.11500000000001 Q 58.062000000000005 77.805 58.062000000000005 84.94500000000001 L 58.062000000000005 86.33500000000001 Q 58.062000000000005 93.385 54.882000000000005 98.03500000000001 Q 51.712 102.69500000000001 45.922000000000004 104.995 Q 40.132000000000005 107.305 32.22200000000001 107.305 Z" stroke-linecap="round" />
</g>
		<g transform="matrix(1 0 0 1 -349.05 -2.38)"  >
<rect style="stroke: none; stroke-width: 1; stroke-dasharray: none; stroke-linecap: butt; stroke-dashoffset: 0; stroke-linejoin: miter; stroke-miterlimit: 4; fill: none; fill-rule: nonzero; opacity: 1;" vector-effect="non-scaling-stroke"  x="-27.535" y="-32.02" rx="0" ry="0" width="55.07" height="64.04" />
</g>
		<g transform="matrix(1 0 0 1 -294.18 5.31)"  >
<path style="stroke: none; stroke-width: 1; stroke-dasharray: none; stroke-linecap: butt; stroke-dashoffset: 0; stroke-linejoin: miter; stroke-miterlimit: 4; fill: rgb(100,110,228); fill-rule: nonzero; opacity: 1;" vector-effect="non-scaling-stroke"  paint-order="stroke"  transform=" translate(-90.16, -103.82)" d="M 90.942 129.315 Q 84.85199999999999 129.315 80.202 127.225 Q 75.542 125.13499999999999 72.452 121.615 Q 69.372 118.095 67.762 113.695 Q 66.152 109.30499999999999 66.152 104.695 L 66.152 102.955 Q 66.152 98.16499999999999 67.762 93.775 Q 69.372 89.38500000000002 72.412 85.905 Q 75.462 82.425 80.022 80.375 Q 84.59200000000001 78.335 90.42200000000001 78.335 Q 98.08200000000001 78.335 103.34200000000001 81.765 Q 108.60200000000002 85.205 111.39200000000001 90.725 Q 114.17200000000001 96.255 114.17200000000001 102.77499999999999 L 114.17200000000001 107.475 L 71.98200000000001 107.475 L 71.98200000000001 99.55499999999999 L 105.73200000000001 99.55499999999999 L 101.21200000000002 103.21499999999999 Q 101.21200000000002 98.95499999999998 99.99200000000002 95.90499999999999 Q 98.77200000000002 92.86499999999998 96.38200000000002 91.25499999999998 Q 93.99200000000002 89.64499999999998 90.42200000000003 89.64499999999998 Q 86.77200000000002 89.64499999999998 84.24200000000002 91.29499999999999 Q 81.72200000000002 92.945 80.42200000000003 96.12499999999999 Q 79.11200000000002 99.29499999999999 79.11200000000002 103.90499999999999 Q 79.11200000000002 108.17499999999998 80.33200000000002 111.34499999999998 Q 81.55200000000002 114.52499999999999 84.16200000000002 116.26499999999999 Q 86.77200000000002 118.00499999999998 90.94200000000002 118.00499999999998 Q 94.77200000000002 118.00499999999998 97.21200000000002 116.52499999999998 Q 99.64200000000002 115.04499999999997 100.51200000000001 112.87499999999997 L 113.30200000000002 112.87499999999997 Q 112.26200000000001 117.65499999999997 109.21200000000002 121.39499999999997 Q 106.17200000000001 125.13499999999996 101.56200000000001 127.22499999999997 Q 96.95200000000001 129.31499999999997 90.94200000000001 129.31499999999997" stroke-linecap="round" />
</g>
		<g transform="matrix(1 0 0 1 -293.68 5.81)"  >
<rect style="stroke: none; stroke-width: 1; stroke-dasharray: none; stroke-linecap: butt; stroke-dashoffset: 0; stroke-linejoin: miter; stroke-miterlimit: 4; fill: none; fill-rule: nonzero; opacity: 1;" vector-effect="non-scaling-stroke"  x="-24.01" y="-25.49" rx="0" ry="0" width="48.02" height="50.98" />
</g>
		<g transform="matrix(1 0 0 1 -243.24 5.35)"  >
<path style="stroke: none; stroke-width: 1; stroke-dasharray: none; stroke-linecap: butt; stroke-dashoffset: 0; stroke-linejoin: miter; stroke-miterlimit: 4; fill: rgb(100,110,228); fill-rule: nonzero; opacity: 1;" vector-effect="non-scaling-stroke"  paint-order="stroke"  transform=" translate(-141.1, -103.86)" d="M 141.492 129.135 Q 131.31199999999998 129.135 125.57199999999999 124.96499999999999 Q 119.832 120.785 119.48199999999999 113.21499999999999 L 131.832 113.21499999999999 Q 132.182 115.48499999999999 134.572 117.26499999999999 Q 136.972 119.04499999999999 141.752 119.04499999999999 Q 145.40200000000002 119.04499999999999 147.80200000000002 117.78499999999998 Q 150.192 116.52499999999998 150.192 114.17499999999998 Q 150.192 112.08499999999998 148.362 110.82499999999999 Q 146.542 109.56499999999998 141.84199999999998 109.04499999999999 L 138.10199999999998 108.695 Q 129.48199999999997 107.82499999999999 125.18199999999997 103.90499999999999 Q 120.87199999999997 99.99499999999999 120.87199999999997 93.90499999999999 Q 120.87199999999997 88.85499999999999 123.39199999999997 85.46499999999999 Q 125.92199999999997 82.07499999999999 130.40199999999996 80.335 Q 134.88199999999995 78.595 140.62199999999996 78.595 Q 149.84199999999996 78.595 155.50199999999995 82.635 Q 161.15199999999996 86.685 161.41199999999995 94.33500000000001 L 149.06199999999995 94.33500000000001 Q 148.71199999999996 91.995 146.62199999999996 90.385 Q 144.53199999999995 88.775 140.45199999999997 88.775 Q 137.23199999999997 88.775 135.31199999999998 89.985 Q 133.402 91.205 133.402 93.295 Q 133.402 95.295 135.052 96.345 Q 136.702 97.385 140.452 97.815 L 144.192 98.16499999999999 Q 152.972 99.12499999999999 157.852 103.035 Q 162.722 106.955 162.722 113.565 Q 162.722 118.355 160.112 121.875 Q 157.50199999999998 125.395 152.712 127.265 Q 147.932 129.135 141.492 129.135" stroke-linecap="round" />
</g>
		<g transform="matrix(1 0 0 1 -242.74 5.84)"  >
<rect style="stroke: none; stroke-width: 1; stroke-dasharray: none; stroke-linecap: butt; stroke-dashoffset: 0; stroke-linejoin: miter; stroke-miterlimit: 4; fill: none; fill-rule: nonzero; opacity: 1;" vector-effect="non-scaling-stroke"  x="-21.62" y="-25.27" rx="0" ry="0" width="43.24" height="50.54" />
</g>
		<g transform="matrix(1 0 0 1 -191.48 6.04)"  >
<path style="stroke: none; stroke-width: 1; stroke-dasharray: none; stroke-linecap: butt; stroke-dashoffset: 0; stroke-linejoin: miter; stroke-miterlimit: 4; fill: rgb(100,110,228); fill-rule: nonzero; opacity: 1;" vector-effect="non-scaling-stroke"  paint-order="stroke"  transform=" translate(-192.86, -104.56)" d="M 187.862 129.135 Q 179.602 129.135 175.162 123.785 Q 170.722 118.435 170.722 107.655 L 170.722 79.985 L 184.642 79.985 L 184.642 108.345 Q 184.642 112.175 186.822 114.435 Q 188.992 116.69500000000001 192.65200000000002 116.69500000000001 Q 196.39200000000002 116.69500000000001 198.74200000000002 114.34500000000001 Q 201.08200000000002 112.00500000000001 201.08200000000002 107.99500000000002 L 201.08200000000002 79.98500000000001 L 215.002 79.98500000000001 L 215.002 127.66500000000002 L 203.96200000000002 127.66500000000002 L 203.96200000000002 107.56500000000003 L 204.912 107.56500000000003 Q 204.912 114.78500000000003 203.042 119.61500000000002 Q 201.172 124.44500000000002 197.522 126.79500000000002 Q 193.862 129.13500000000002 188.47199999999998 129.13500000000002 Z" stroke-linecap="round" />
</g>
		<g transform="matrix(1 0 0 1 -190.98 6.55)"  >
<rect style="stroke: none; stroke-width: 1; stroke-dasharray: none; stroke-linecap: butt; stroke-dashoffset: 0; stroke-linejoin: miter; stroke-miterlimit: 4; fill: none; fill-rule: nonzero; opacity: 1;" vector-effect="non-scaling-stroke"  x="-22.14" y="-24.575" rx="0" ry="0" width="44.28" height="49.15" />
</g>
		<g transform="matrix(1 0 0 1 -119.61 4.57)"  >
<path style="stroke: none; stroke-width: 1; stroke-dasharray: none; stroke-linecap: butt; stroke-dashoffset: 0; stroke-linejoin: miter; stroke-miterlimit: 4; fill: rgb(100,110,228); fill-rule: nonzero; opacity: 1;" vector-effect="non-scaling-stroke"  paint-order="stroke"  transform=" translate(-264.73, -103.09)" d="M 227.882 127.665 L 227.882 79.98500000000001 L 238.93200000000002 79.98500000000001 L 238.93200000000002 100.51500000000001 L 238.15200000000002 100.51500000000001 Q 238.15200000000002 93.20500000000001 239.972 88.33500000000001 Q 241.80200000000002 83.465 245.452 80.98500000000001 Q 249.112 78.50500000000001 254.422 78.50500000000001 L 255.022 78.50500000000001 Q 260.42199999999997 78.50500000000001 264.032 80.98500000000001 Q 267.642 83.46500000000002 269.512 88.33500000000001 Q 271.382 93.20500000000001 271.382 100.51500000000001 L 267.992 100.51500000000001 Q 267.992 93.20500000000001 269.862 88.33500000000001 Q 271.732 83.465 275.382 80.98500000000001 Q 279.04200000000003 78.50500000000001 284.342 78.50500000000001 L 284.952 78.50500000000001 Q 290.352 78.50500000000001 294.042 80.98500000000001 Q 297.74199999999996 83.46500000000002 299.662 88.33500000000001 Q 301.572 93.20500000000001 301.572 100.51500000000001 L 301.572 127.66500000000002 L 287.652 127.66500000000002 L 287.652 99.73500000000001 Q 287.652 95.81500000000001 285.602 93.38500000000002 Q 283.56199999999995 90.94500000000002 279.822 90.94500000000002 Q 276.08200000000005 90.94500000000002 273.902 93.42500000000003 Q 271.73199999999997 95.90500000000003 271.73199999999997 99.99500000000003 L 271.73199999999997 127.66500000000003 L 257.722 127.66500000000003 L 257.722 99.73500000000004 Q 257.722 95.81500000000004 255.682 93.38500000000005 Q 253.63199999999998 90.94500000000005 249.982 90.94500000000005 Q 246.152 90.94500000000005 243.982 93.42500000000005 Q 241.802 95.90500000000006 241.802 99.99500000000006 L 241.802 127.66500000000006 Z" stroke-linecap="round" />
</g>
		<g transform="matrix(1 0 0 1 -119.1 5.06)"  >
<rect style="stroke: none; stroke-width: 1; stroke-dasharray: none; stroke-linecap: butt; stroke-dashoffset: 0; stroke-linejoin: miter; stroke-miterlimit: 4; fill: none; fill-rule: nonzero; opacity: 1;" vector-effect="non-scaling-stroke"  x="-36.845" y="-24.58" rx="0" ry="0" width="73.69" height="49.16" />
</g>
		<g transform="matrix(1 0 0 1 -49.88 5.31)"  >
<path style="stroke: none; stroke-width: 1; stroke-dasharray: none; stroke-linecap: butt; stroke-dashoffset: 0; stroke-linejoin: miter; stroke-miterlimit: 4; fill: rgb(100,110,228); fill-rule: nonzero; opacity: 1;" vector-effect="non-scaling-stroke"  paint-order="stroke"  transform=" translate(-334.46, -103.82)" d="M 335.242 129.315 Q 329.15200000000004 129.315 324.492 127.225 Q 319.84200000000004 125.13499999999999 316.752 121.615 Q 313.66200000000003 118.095 312.052 113.695 Q 310.442 109.30499999999999 310.442 104.695 L 310.442 102.955 Q 310.442 98.16499999999999 312.052 93.775 Q 313.66200000000003 89.38500000000002 316.71200000000005 85.905 Q 319.75200000000007 82.425 324.32200000000006 80.375 Q 328.89200000000005 78.335 334.72200000000004 78.335 Q 342.372 78.335 347.64200000000005 81.765 Q 352.90200000000004 85.205 355.6820000000001 90.725 Q 358.4720000000001 96.255 358.4720000000001 102.77499999999999 L 358.4720000000001 107.475 L 316.2720000000001 107.475 L 316.2720000000001 99.55499999999999 L 350.0320000000001 99.55499999999999 L 345.5020000000001 103.21499999999999 Q 345.5020000000001 98.95499999999998 344.29200000000014 95.90499999999999 Q 343.0720000000001 92.86499999999998 340.68200000000013 91.25499999999998 Q 338.28200000000015 89.64499999999998 334.72200000000015 89.64499999999998 Q 331.0620000000001 89.64499999999998 328.54200000000014 91.29499999999999 Q 326.02200000000016 92.945 324.71200000000016 96.12499999999999 Q 323.41200000000015 99.29499999999999 323.41200000000015 103.90499999999999 Q 323.41200000000015 108.17499999999998 324.6220000000001 111.34499999999998 Q 325.84200000000016 114.52499999999999 328.4520000000001 116.26499999999999 Q 331.0620000000001 118.00499999999998 335.24200000000013 118.00499999999998 Q 339.0720000000001 118.00499999999998 341.5020000000001 116.52499999999998 Q 343.9420000000001 115.04499999999997 344.8120000000001 112.87499999999997 L 357.60200000000015 112.87499999999997 Q 356.55200000000013 117.65499999999997 353.51200000000017 121.39499999999997 Q 350.46200000000016 125.13499999999996 345.85200000000015 127.22499999999997 Q 341.24200000000013 129.31499999999997 335.24200000000013 129.31499999999997" stroke-linecap="round" />
</g>
		<g transform="matrix(1 0 0 1 -49.38 5.81)"  >
<rect style="stroke: none; stroke-width: 1; stroke-dasharray: none; stroke-linecap: butt; stroke-dashoffset: 0; stroke-linejoin: miter; stroke-miterlimit: 4; fill: none; fill-rule: nonzero; opacity: 1;" vector-effect="non-scaling-stroke"  x="-24.015" y="-25.49" rx="0" ry="0" width="48.03" height="50.98" />
</g>
		<g transform="matrix(1 0 0 1 32.33 -2.74)"  >
<path style="stroke: none; stroke-width: 1; stroke-dasharray: none; stroke-linecap: butt; stroke-dashoffset: 0; stroke-linejoin: miter; stroke-miterlimit: 4; fill: rgb(100,110,228); fill-rule: nonzero; opacity: 1;" vector-effect="non-scaling-stroke"  paint-order="stroke"  transform=" translate(-416.67, -95.78)" d="M 416.842 129.315 Q 408.322 129.315 401.972 126.485 Q 395.62199999999996 123.655 391.48199999999997 118.875 Q 387.352 114.085 385.352 108.255 Q 383.352 102.435 383.352 96.60499999999999 L 383.352 94.68499999999999 Q 383.352 88.68499999999999 385.352 82.945 Q 387.352 77.205 391.402 72.505 Q 395.442 67.80499999999999 401.49199999999996 65.02499999999999 Q 407.542 62.23499999999999 415.45199999999994 62.23499999999999 Q 424.07199999999995 62.23499999999999 430.68199999999996 65.41499999999999 Q 437.292 68.585 441.292 74.195 Q 445.292 79.815 445.902 87.205 L 431.632 87.205 Q 431.112 83.725 428.892 81.115 Q 426.682 78.505 423.242 77.02499999999999 Q 419.802 75.54499999999999 415.452 75.54499999999999 Q 411.282 75.54499999999999 408.012 77.02499999999999 Q 404.752 78.505 402.452 81.20499999999998 Q 400.142 83.89499999999998 398.972 87.59499999999998 Q 397.792 91.29499999999999 397.792 95.73499999999999 Q 397.792 100.34499999999998 399.05199999999996 104.12499999999999 Q 400.31199999999995 107.91499999999999 402.75199999999995 110.65499999999999 Q 405.19199999999995 113.39499999999998 408.80199999999996 114.87499999999999 Q 412.412 116.35499999999999 416.842 116.35499999999999 Q 422.762 116.35499999999999 427.11199999999997 113.91499999999999 Q 431.46199999999993 111.475 433.37199999999996 107.475 L 431.63199999999995 117.225 L 431.63199999999995 102.085 L 444.77199999999993 102.085 L 444.77199999999993 115.655 Q 440.68199999999996 122.265 433.50199999999995 125.795 Q 426.33199999999994 129.315 416.8419999999999 129.315 M 415.02199999999993 104.865 L 415.02199999999993 94.60499999999999 L 449.99199999999996 94.60499999999999 L 449.99199999999996 104.865 Z" stroke-linecap="round" />
</g>
		<g transform="matrix(1 0 0 1 32.83 -2.24)"  >
<rect style="stroke: none; stroke-width: 1; stroke-dasharray: none; stroke-linecap: butt; stroke-dashoffset: 0; stroke-linejoin: miter; stroke-miterlimit: 4; fill: none; fill-rule: nonzero; opacity: 1;" vector-effect="non-scaling-stroke"  x="-33.32" y="-33.54" rx="0" ry="0" width="66.64" height="67.08" />
</g>
		<g transform="matrix(1 0 0 1 95.15 5.31)"  >
<path style="stroke: none; stroke-width: 1; stroke-dasharray: none; stroke-linecap: butt; stroke-dashoffset: 0; stroke-linejoin: miter; stroke-miterlimit: 4; fill: rgb(100,110,228); fill-rule: nonzero; opacity: 1;" vector-effect="non-scaling-stroke"  paint-order="stroke"  transform=" translate(-479.49, -103.82)" d="M 480.272 129.315 Q 474.182 129.315 469.522 127.225 Q 464.872 125.13499999999999 461.782 121.615 Q 458.692 118.095 457.082 113.695 Q 455.472 109.30499999999999 455.472 104.695 L 455.472 102.955 Q 455.472 98.16499999999999 457.082 93.775 Q 458.692 89.38500000000002 461.742 85.905 Q 464.78200000000004 82.425 469.35200000000003 80.375 Q 473.922 78.335 479.752 78.335 Q 487.402 78.335 492.66200000000003 81.765 Q 497.932 85.205 500.71200000000005 90.725 Q 503.50200000000007 96.255 503.50200000000007 102.77499999999999 L 503.50200000000007 107.475 L 461.3020000000001 107.475 L 461.3020000000001 99.55499999999999 L 495.06200000000007 99.55499999999999 L 490.5320000000001 103.21499999999999 Q 490.5320000000001 98.95499999999998 489.3220000000001 95.90499999999999 Q 488.1020000000001 92.86499999999998 485.7020000000001 91.25499999999998 Q 483.3120000000001 89.64499999999998 479.7520000000001 89.64499999999998 Q 476.0920000000001 89.64499999999998 473.5720000000001 91.29499999999999 Q 471.05200000000013 92.945 469.74200000000013 96.12499999999999 Q 468.4420000000001 99.29499999999999 468.4420000000001 103.90499999999999 Q 468.4420000000001 108.17499999999998 469.6520000000001 111.34499999999998 Q 470.8720000000001 114.52499999999999 473.4820000000001 116.26499999999999 Q 476.0920000000001 118.00499999999998 480.2720000000001 118.00499999999998 Q 484.1020000000001 118.00499999999998 486.5320000000001 116.52499999999998 Q 488.9720000000001 115.04499999999997 489.8420000000001 112.87499999999997 L 502.6320000000001 112.87499999999997 Q 501.5820000000001 117.65499999999997 498.54200000000014 121.39499999999997 Q 495.49200000000013 125.13499999999996 490.8820000000001 127.22499999999997 Q 486.2720000000001 129.31499999999997 480.2720000000001 129.31499999999997" stroke-linecap="round" />
</g>
		<g transform="matrix(1 0 0 1 95.65 5.81)"  >
<rect style="stroke: none; stroke-width: 1; stroke-dasharray: none; stroke-linecap: butt; stroke-dashoffset: 0; stroke-linejoin: miter; stroke-miterlimit: 4; fill: none; fill-rule: nonzero; opacity: 1;" vector-effect="non-scaling-stroke"  x="-24.015" y="-25.49" rx="0" ry="0" width="48.03" height="50.98" />
</g>
		<g transform="matrix(1 0 0 1 150.83 4.57)"  >
<path style="stroke: none; stroke-width: 1; stroke-dasharray: none; stroke-linecap: butt; stroke-dashoffset: 0; stroke-linejoin: miter; stroke-miterlimit: 4; fill: rgb(100,110,228); fill-rule: nonzero; opacity: 1;" vector-effect="non-scaling-stroke"  paint-order="stroke"  transform=" translate(-535.17, -103.09)" d="M 512.722 127.665 L 512.722 79.98500000000001 L 523.7719999999999 79.98500000000001 L 523.7719999999999 100.42500000000001 L 522.982 100.42500000000001 Q 522.982 93.12500000000001 524.852 88.245 Q 526.732 83.375 530.552 80.94500000000001 Q 534.3820000000001 78.50500000000001 539.862 78.50500000000001 L 540.472 78.50500000000001 Q 548.822 78.50500000000001 553.222 83.94500000000001 Q 557.612 89.385 557.612 100.42500000000001 L 557.612 127.665 L 543.692 127.665 L 543.692 99.64500000000001 Q 543.692 95.81500000000001 541.432 93.385 Q 539.172 90.94500000000001 535.342 90.94500000000001 Q 531.422 90.94500000000001 529.032 93.42500000000001 Q 526.642 95.90500000000002 526.642 99.90500000000002 L 526.642 127.66500000000002 Z" stroke-linecap="round" />
</g>
		<g transform="matrix(1 0 0 1 151.33 5.06)"  >
<rect style="stroke: none; stroke-width: 1; stroke-dasharray: none; stroke-linecap: butt; stroke-dashoffset: 0; stroke-linejoin: miter; stroke-miterlimit: 4; fill: none; fill-rule: nonzero; opacity: 1;" vector-effect="non-scaling-stroke"  x="-22.445" y="-24.58" rx="0" ry="0" width="44.89" height="49.16" />
</g>
		<g transform="matrix(1 0 0 1 191.15 -4.31)"  >
<path style="stroke: none; stroke-width: 1; stroke-dasharray: none; stroke-linecap: butt; stroke-dashoffset: 0; stroke-linejoin: miter; stroke-miterlimit: 4; fill: rgb(100,110,228); fill-rule: nonzero; opacity: 1;" vector-effect="non-scaling-stroke"  paint-order="stroke"  transform=" translate(-575.49, -94.21)" d="M 571.702 127.665 L 571.702 79.98500000000001 L 585.622 79.98500000000001 L 585.622 127.66500000000002 Z M 565.352 90.25500000000001 L 565.352 79.98500000000001 L 585.622 79.98500000000001 L 585.622 90.25500000000001 Z M 577.102 75.28500000000001 Q 573.182 75.28500000000001 571.312 73.245 Q 569.442 71.19500000000001 569.442 68.065 Q 569.442 64.845 571.312 62.805 Q 573.182 60.755 577.102 60.755 Q 581.012 60.755 582.882 62.805 Q 584.752 64.845 584.752 68.065 Q 584.752 71.195 582.882 73.245 Q 581.012 75.28500000000001 577.102 75.28500000000001" stroke-linecap="round" />
</g>
		<g transform="matrix(1 0 0 1 191.66 -3.8)"  >
<rect style="stroke: none; stroke-width: 1; stroke-dasharray: none; stroke-linecap: butt; stroke-dashoffset: 0; stroke-linejoin: miter; stroke-miterlimit: 4; fill: none; fill-rule: nonzero; opacity: 1;" vector-effect="non-scaling-stroke"  x="-10.135" y="-33.455" rx="0" ry="0" width="20.27" height="66.91" />
</g>
		<g transform="matrix(1 0 0 1 235.22 5.31)"  >
<path style="stroke: none; stroke-width: 1; stroke-dasharray: none; stroke-linecap: butt; stroke-dashoffset: 0; stroke-linejoin: miter; stroke-miterlimit: 4; fill: rgb(100,110,228); fill-rule: nonzero; opacity: 1;" vector-effect="non-scaling-stroke"  paint-order="stroke"  transform=" translate(-619.56, -103.82)" d="M 620.342 129.315 Q 614.252 129.315 609.592 127.225 Q 604.942 125.13499999999999 601.852 121.615 Q 598.762 118.095 597.1519999999999 113.695 Q 595.5419999999999 109.30499999999999 595.5419999999999 104.695 L 595.5419999999999 102.955 Q 595.5419999999999 98.16499999999999 597.1519999999999 93.775 Q 598.762 89.38500000000002 601.8119999999999 85.905 Q 604.8519999999999 82.425 609.4219999999999 80.375 Q 613.992 78.335 619.8219999999999 78.335 Q 627.4719999999999 78.335 632.7319999999999 81.765 Q 638.0019999999998 85.205 640.7819999999998 90.725 Q 643.5719999999998 96.255 643.5719999999998 102.77499999999999 L 643.5719999999998 107.475 L 601.3719999999997 107.475 L 601.3719999999997 99.55499999999999 L 635.1319999999997 99.55499999999999 L 630.6019999999997 103.21499999999999 Q 630.6019999999997 98.95499999999998 629.3919999999997 95.90499999999999 Q 628.1719999999997 92.86499999999998 625.7719999999997 91.25499999999998 Q 623.3819999999997 89.64499999999998 619.8219999999997 89.64499999999998 Q 616.1619999999997 89.64499999999998 613.6419999999997 91.29499999999999 Q 611.1219999999997 92.945 609.8119999999997 96.12499999999999 Q 608.5119999999997 99.29499999999999 608.5119999999997 103.90499999999999 Q 608.5119999999997 108.17499999999998 609.7219999999998 111.34499999999998 Q 610.9419999999998 114.52499999999999 613.5519999999998 116.26499999999999 Q 616.1619999999998 118.00499999999998 620.3419999999998 118.00499999999998 Q 624.1719999999998 118.00499999999998 626.6019999999997 116.52499999999998 Q 629.0419999999998 115.04499999999997 629.9119999999997 112.87499999999997 L 642.7019999999997 112.87499999999997 Q 641.6519999999997 117.65499999999997 638.6119999999996 121.39499999999997 Q 635.5619999999997 125.13499999999996 630.9519999999997 127.22499999999997 Q 626.3419999999996 129.31499999999997 620.3419999999996 129.31499999999997" stroke-linecap="round" />
</g>
		<g transform="matrix(1 0 0 1 235.72 5.81)"  >
<rect style="stroke: none; stroke-width: 1; stroke-dasharray: none; stroke-linecap: butt; stroke-dashoffset: 0; stroke-linejoin: miter; stroke-miterlimit: 4; fill: none; fill-rule: nonzero; opacity: 1;" vector-effect="non-scaling-stroke"  x="-24.015" y="-25.49" rx="0" ry="0" width="48.03" height="50.98" />
</g>
		<g transform="matrix(1 0 0 1 340.02 -43.24)"  >
<path style="stroke: none; stroke-width: 1; stroke-dasharray: none; stroke-linecap: butt; stroke-dashoffset: 0; stroke-linejoin: miter; stroke-miterlimit: 4; fill: rgb(100,110,228); fill-rule: nonzero; opacity: 1;" vector-effect="non-scaling-stroke"  transform=" translate(-724.36, -55.28)" d="M 729.629 45.495 C 727.4300000000001 44.823 725.7710000000001 42.94 724.589 39.82899999999999 C 723.365 42.904999999999994 721.6750000000001 44.748999999999995 719.456 45.36299999999999 C 712.931 47.166999999999994 710.5020000000001 53.587999999999994 711.2620000000001 57.528999999999996 C 711.2700000000001 57.574 711.2660000000001 57.62 711.2700000000001 57.666 C 711.2740000000001 57.686 711.2860000000001 57.702999999999996 711.2890000000001 57.726 C 712.176 66.727 716.0440000000001 70.612 724.2180000000001 70.717 C 732.3170000000001 70.91199999999999 736.2660000000001 67.123 737.4420000000001 58.352 C 737.4420000000001 58.343999999999994 737.4480000000001 58.337999999999994 737.4500000000002 58.327 C 737.4500000000002 58.317 737.4460000000001 58.306999999999995 737.4480000000002 58.297 C 738.2260000000002 53.48 735.7490000000003 47.357 729.6280000000002 45.495" stroke-linecap="round" />
</g>
		<g transform="matrix(1 0 0 1 339.91 -36.86)"  >
<path style="stroke: none; stroke-width: 1; stroke-dasharray: none; stroke-linecap: butt; stroke-dashoffset: 0; stroke-linejoin: miter; stroke-miterlimit: 4; fill: rgb(100,110,228); fill-rule: nonzero; opacity: 1;" vector-effect="non-scaling-stroke"  transform=" translate(-724.25, -61.66)" d="M 706.87 54.982 C 707.335 49.269999999999996 711.425 43.122 718.311 41.217 C 719.217 40.967 720.082 39.719 720.787 37.741 C 721.105 36.849 720.8570000000001 35.881 720.2710000000001 35.138 C 719.4719510846677 34.138012387024034 719.0443332239777 32.89191273678177 719.061 31.612 C 719.1046358385821 29.074032472649538 720.8452493080038 26.880843103500617 723.307 26.262 C 723.967 29.604 724.745 31.745 724.745 31.745 C 724.745 31.745 725.575 29.631 726.321 26.311 C 728.742465785467 27.009877978451346 730.4014166310658 29.236805832809555 730.378 31.756999999999994 C 730.3624436557604 33.05026424877883 729.8955425784865 34.29745606580027 729.058 35.283 C 728.43 36.026 728.15 37.017 728.472 37.933 C 729.1519999999999 39.875 729.992 41.111 730.882 41.381 C 737.983 43.541 741.5379999999999 49.831 741.8589999999999 55.704 C 743.2649999999999 55.081 744.987 54.009 746.304 52.197 C 748.4069999999999 49.307 749.019 45.259 748.121 40.163000000000004 C 746.261 29.582000000000004 736.875 25.496000000000002 730.021 22.511000000000003 C 729.0669456312556 22.10057139830498 728.1201344932335 21.673506233584476 727.1809999999999 21.23000000000001 C 727.3409999999999 19.844000000000005 727.4469999999999 18.374000000000002 727.4659999999999 16.850000000000005 C 727.5739999999998 8.603000000000005 725.1279999999999 1.8850000000000051 725.1279999999999 1.8850000000000051 C 725.1279999999999 1.8850000000000051 722.5129999999999 8.539000000000005 722.4079999999999 16.783000000000005 C 722.3906943826694 18.188107597832868 722.4437608324682 19.593200388103728 722.5669999999999 20.992999999999995 C 721.6189999999999 21.437000000000005 720.5629999999999 21.879000000000005 719.3809999999999 22.366000000000007 C 712.5679999999999 25.172000000000008 703.2429999999998 29.016000000000005 701.1089999999998 39.56 C 700.0719999999998 44.666000000000004 700.5909999999998 48.71 702.6389999999998 51.585 C 703.8819999999998 53.323 705.5169999999998 54.368 706.8709999999998 54.982 M 716.1429999999998 120.307 C 717.1768473228574 119.48159328189574 717.8023837297305 118.2487576811779 717.8579999999998 116.927 C 717.9677835558132 114.5619587307115 716.2822860698935 112.49233662613055 713.9439999999998 112.12100000000001 C 710.3129999999999 111.531 706.9299999999998 110.712 703.8939999999999 109.68400000000001 C 694.4399999999999 106.48100000000001 689.4749999999999 101.74600000000001 689.1269999999998 95.61200000000001 C 688.7779999999998 89.43900000000001 690.8809999999999 84.87400000000001 695.5579999999999 81.662 C 696.7439843997008 80.85549196172494 698.0104279175353 80.17417953204583 699.3369999999999 79.62900000000002 C 700.6778097247613 79.08551664965695 701.474183257699 77.69671386852572 701.2659999999998 76.265 L 700.8859999999999 69.093 C 683.3609999999999 72.619 679.3829999999998 87.552 679.8679999999998 96.134 C 680.8489999999998 113.502 700.7119999999999 119.34 712.4649999999998 121.275 C 713.772723570233 121.49364071714618 715.1114884886246 121.14202382993402 716.1429999999998 120.30900000000001 z M 757.6289999999998 74.531 C 754.6294796382851 72.55994397688823 751.3583369709762 71.03722874967545 747.9189999999998 70.01100000000002 L 746.9019999999997 74.94600000000001 C 746.4959999999998 77.311 747.7689999999997 79.72300000000001 750.0899999999997 80.876 C 750.9221542629065 81.28801303427791 751.7283263865567 81.75054343662072 752.5039999999997 82.26100000000001 C 757.6719999999997 85.68500000000002 759.8999999999996 90.38100000000001 759.3169999999997 96.61500000000001 C 758.5599999999997 104.683 749.8779999999997 110.21300000000001 734.8649999999997 112.185 C 732.5417212008853 112.49860493013236 730.819261559311 114.49890834834547 730.8539999999997 116.843 C 730.868968517348 118.17493053579076 731.4548978789658 119.43637199548246 732.4629999999997 120.307 C 733.4610666492033 121.18327766413704 734.7920664977602 121.57994776170365 736.1069999999997 121.393 C 738.9387526342073 121.0180978124897 741.7457065575529 120.47513955893749 744.5129999999997 119.767 C 754.7749999999996 117.113 767.2749999999996 111.094 768.5479999999997 97.484 C 769.4419999999997 87.93799999999999 765.5639999999996 79.78399999999999 757.6279999999997 74.53099999999999" stroke-linecap="round" />
</g>
		<g transform="matrix(1 0 0 1 367.79 -3.53)"  >
<path style="stroke: none; stroke-width: 1; stroke-dasharray: none; stroke-linecap: butt; stroke-dashoffset: 0; stroke-linejoin: miter; stroke-miterlimit: 4; fill: rgb(100,110,228); fill-rule: nonzero; opacity: 1;" vector-effect="non-scaling-stroke"  transform=" translate(-752.13, -94.99)" d="M 750.813 86.355 L 749.16 103.619 C 752.314 101.869 754.726 99.484 755.031 96.217 C 755.438 91.878 754.1149999999999 88.809 750.813 86.355" stroke-linecap="round" />
</g>
		<g transform="matrix(1 0 0 1 343.73 33.89)"  >
<path style="stroke: none; stroke-width: 1; stroke-dasharray: none; stroke-linecap: butt; stroke-dashoffset: 0; stroke-linejoin: miter; stroke-miterlimit: 4; fill: rgb(100,110,228); fill-rule: nonzero; opacity: 1;" vector-effect="non-scaling-stroke"  transform=" translate(-728.07, -132.4)" d="M 755.465 161.708 C 743.272 153.298 741.6120000000001 150.10399999999998 741.803 135.416 L 742.838 124.55 C 740.7999179084717 125.00242368081638 738.7442039289524 125.37139798483267 736.6759999999999 125.65599999999999 C 734.1391561435602 125.99386279583972 731.5791177694892 125.22868473560925 729.6437759919588 123.55411606729072 C 727.7084342144285 121.87954739897219 726.5832560153233 119.45606478900109 726.5529999999999 116.89699999999999 C 726.4933078593828 112.37588533889502 729.8204476996449 108.52277488251204 734.3019999999999 107.92299999999999 C 736.8459999999999 107.58699999999999 740.843 106.89799999999998 744.651 105.58999999999999 L 746.7249999999999 83.92899999999999 C 746.7289999999999 83.90799999999999 746.7409999999999 83.88899999999998 746.7449999999999 83.86899999999999 C 743.6299999999999 81.64899999999999 742.0209999999998 77.92499999999998 742.6759999999999 74.14399999999999 L 743.722 69.05799999999999 C 742.0188850840877 68.7180291951703 740.3053445716796 68.43255027757175 738.584 68.202 C 735.6869999999999 72.722 730.992 75.021 724.5189999999999 75.021 L 724.1619999999999 75.019 C 717.4789999999999 74.932 712.713 72.491 709.886 67.77000000000001 C 708.3031589878515 67.93302922751138 706.7252045940784 68.14044419643085 705.154 68.39200000000002 L 705.539 75.83000000000001 C 706.014 78.89500000000001 704.27 82.05400000000002 701.273 83.45200000000001 L 703.3530000000001 104.81600000000002 C 703.3530000000001 104.84100000000002 703.3430000000001 104.86400000000002 703.345 104.88600000000001 C 703.981249679866 105.14322563513898 704.6237805321483 105.38463317901673 705.272 105.61000000000001 C 708.0840000000001 106.56200000000001 711.2320000000001 107.32300000000001 714.6320000000001 107.87300000000002 C 719.133652111425 108.59383594389845 722.3733862380521 112.58428219266214 722.1540000000001 117.13800000000002 C 722.0272239196096 119.68124456526726 720.8234807737053 122.05018198291687 718.8440000000002 123.65200000000002 C 716.8585759894067 125.25310278652883 714.2848889268134 125.9321691723205 711.7680000000001 125.51900000000002 C 709.5730294028313 125.1586865159054 707.3932981028642 124.71099759571013 705.2340000000002 124.17700000000002 L 706.6140000000001 138.342 C 708.6010000000001 158.77900000000002 722.2370000000002 162.948 734.2680000000001 166.61900000000003 C 737.1870000000001 167.51100000000002 739.9450000000002 168.35500000000002 742.4340000000002 169.39400000000003 C 748.1340000000002 171.77300000000002 751.9100000000002 175.52400000000003 753.6600000000002 180.54800000000003 C 755.6680000000002 186.31200000000004 754.5500000000002 192.55400000000003 753.1190000000001 197.03600000000003 C 760.2580000000002 191.73600000000002 762.3190000000002 185.24400000000003 762.6860000000001 180.33000000000004 C 763.2920000000001 172.20900000000003 759.4900000000001 164.48300000000003 755.4650000000001 161.70600000000005 z M 693.417 95.368 C 693.577 98.158 695.414 100.60199999999999 698.826 102.69 L 697.186 85.833 C 694.3580000000001 88.114 693.178 91.093 693.416 95.369" stroke-linecap="round" />
</g>
</g>
</g>
</svg>